<svg preserveAspectRatio="none" width="100%" height="100%" overflow="visible" style="display: block;" viewBox="0 0 20 20" fill="none" xmlns="http://www.w3.org/2000/svg">
<g id="car">
<path id="Vector" d="M15.8338 14.1673H17.5006C18.0006 14.1673 18.334 13.834 18.334 13.334V10.834C18.334 10.084 17.7506 9.41733 17.0839 9.25067C15.5838 8.834 13.3336 8.334 13.3336 8.334C13.3336 8.334 12.2502 7.16733 11.5001 6.41733C11.0834 6.084 10.5834 5.834 10 5.834H4.1662C3.66616 5.834 3.24946 6.16733 2.99944 6.584L1.83268 9.00067C1.72232 9.32252 1.666 9.66042 1.666 10.0007V13.334C1.666 13.834 1.99936 14.1673 2.4994 14.1673H4.1662M15.8338 14.1673C15.8338 15.0878 15.0875 15.834 14.167 15.834C13.2465 15.834 12.5002 15.0878 12.5002 14.1673M15.8338 14.1673C15.8338 13.2469 15.0875 12.5007 14.167 12.5007C13.2465 12.5007 12.5002 13.2469 12.5002 14.1673M4.1662 14.1673C4.1662 15.0878 4.91245 15.834 5.833 15.834C6.75355 15.834 7.4998 15.0878 7.4998 14.1673M4.1662 14.1673C4.1662 13.2469 4.91245 12.5007 5.833 12.5007C6.75355 12.5007 7.4998 13.2469 7.4998 14.1673M12.5002 14.1673H7.4998" stroke="var(--stroke-0, #F58220)" stroke-width="2" stroke-linecap="round"/>
</g>
</svg>
