<svg width="32" height="32" viewBox="0 0 32 32" fill="none" xmlns="http://www.w3.org/2000/svg">
<rect width="32" height="32" rx="16" fill="white"/>
<path d="M13.4574 12.0651C13.8787 11.7827 14.33 11.4666 14.7625 11.208C14.5006 11.5786 14.1023 12.1817 13.8234 12.514C13.3488 13.7421 13.5551 14.7231 14.3928 15.7367C17.2611 19.2074 20.8105 20.7183 18.1623 25.8126C17.878 26.425 17.3811 27.0129 16.9332 27.5165C17.4365 26.0716 17.5942 25.9474 17.6793 24.3733C17.4108 23.3386 17.1187 22.6754 16.4271 21.8329C13.3864 18.1293 6.77427 16.5944 13.4574 12.0651Z" fill="#F7872D"/>
<path d="M19.9203 18.0936C19.9322 18.0186 19.9437 17.9436 19.9545 17.8684C20.5359 13.8155 15.4923 11.9999 13.4403 9.39311C11.8048 7.31538 14.2266 5.57153 15.7044 4.4834L16.1761 4.8201C14.0798 9.26665 23.8309 10.9448 20.8616 17.4313C20.7469 17.6824 20.6225 17.9289 20.4886 18.1704C20.2478 18.1748 20.1581 18.1456 19.9203 18.0936Z" fill="#014AAD"/>
</svg>
