<svg preserveAspectRatio="none" width="100%" height="100%" overflow="visible" style="display: block;" viewBox="0 0 32 32" fill="none" xmlns="http://www.w3.org/2000/svg">
<g id="material-icon">
<path id="Vector" d="M16 2.66667C8.64 2.66667 2.66667 8.64 2.66667 16C2.66667 23.36 8.64 29.3333 16 29.3333C23.36 29.3333 29.3333 23.36 29.3333 16C29.3333 8.64 23.36 2.66667 16 2.66667ZM17.88 24.12V26.6667H14.32V24.0933C12.04 23.6133 10.1067 22.1467 9.96 19.56H12.5733C12.7067 20.96 13.6667 22.0533 16.1067 22.0533C18.72 22.0533 19.3067 20.7467 19.3067 19.9333C19.3067 18.8267 18.72 17.7867 15.7467 17.08C12.44 16.28 10.1733 14.92 10.1733 12.1867C10.1733 9.89333 12.0267 8.4 14.32 7.90667V5.33333H17.88V7.93333C20.36 8.53333 21.6 10.4133 21.68 12.4533H19.0667C19 10.9733 18.2133 9.96 16.1067 9.96C14.1067 9.96 12.9067 10.8667 12.9067 12.1467C12.9067 13.2667 13.7733 14 16.4667 14.6933C19.16 15.3867 22.04 16.5467 22.04 19.9067C22.0267 22.3467 20.2 23.68 17.88 24.12Z" fill="var(--fill-0, #F97316)"/>
</g>
</svg>
