<svg preserveAspectRatio="none" width="100%" height="100%" overflow="visible" style="display: block;" viewBox="0 0 18 18" fill="none" xmlns="http://www.w3.org/2000/svg">
<path id="Vector" d="M7.47754 10.6006L7.49512 10.6143L7.5127 10.627C7.94562 10.9412 8.46053 11.122 9.00391 11.1221C9.54737 11.1221 10.0631 10.9413 10.4961 10.627L10.5137 10.6143L10.5312 10.6006L17 5.44922V15.75C17 16.6599 16.4454 16.9998 16.2002 17H1.7998C1.55458 16.9998 1 16.6599 1 15.75V5.44727L7.47754 10.6006ZM1.7998 1H16.2002C16.4454 1.00018 17 1.34012 17 2.25V2.89258L9.31055 9.01367C9.19773 9.09309 9.09318 9.12207 9.00391 9.12207C8.91427 9.12204 8.80863 9.09386 8.69531 9.01367L1 2.89258V2.25C1 1.34012 1.55458 1.00018 1.7998 1Z" stroke="var(--stroke-0, #F97316)" stroke-width="2"/>
</svg>
