<svg preserveAspectRatio="none" width="100%" height="100%" overflow="visible" style="display: block;" viewBox="0 0 10 21.9979" fill="none" xmlns="http://www.w3.org/2000/svg">
<g id="Logo">
<path id="Vector" d="M2.65754 7.76508C3.04563 7.50491 3.46135 7.21373 3.85975 6.97556C3.61855 7.31697 3.25159 7.87247 2.99471 8.17854C2.55751 9.30982 2.74762 10.2134 3.51921 11.1471C6.16127 14.3441 9.4308 15.7358 6.9914 20.4283C6.7295 20.9924 6.27187 21.5339 5.85927 21.9979C6.32288 20.6669 6.46812 20.5525 6.5465 19.1026C6.29923 18.1494 6.03014 17.5385 5.39306 16.7625C2.59216 13.351 -3.49846 11.9372 2.65754 7.76508Z" fill="var(--fill-0, #F7872D)"/>
<path id="Vector_2" d="M8.61011 13.3182C8.62111 13.2491 8.63168 13.18 8.64164 13.1107C9.17713 9.37751 4.53132 7.70512 2.64119 5.30391C1.13464 3.39005 3.36549 1.78373 4.7267 0.781421L5.16121 1.09157C3.23029 5.18743 12.2123 6.7332 9.47723 12.7082C9.37157 12.9394 9.2569 13.1665 9.13357 13.3889C8.91177 13.393 8.82915 13.3662 8.61011 13.3182Z" fill="var(--fill-0, #374DAB)"/>
<path id="Vector_3" d="M6.54646 19.1025L6.5591 19.1709C6.68529 19.8814 6.43032 20.0028 6.99136 20.4282C6.72946 20.9924 6.27182 21.5339 5.85922 21.9978C6.32284 20.6668 6.46808 20.5524 6.54646 19.1025Z" fill="var(--fill-0, #FE973D)"/>
<path id="Vector_4" d="M8.61023 13.3182C8.82926 13.3662 8.91188 13.3931 9.13369 13.389C8.88798 13.8181 8.33421 14.5851 8.03931 15.0218C8.25903 14.4478 8.42714 13.9041 8.61023 13.3182Z" fill="var(--fill-0, #374DAB)"/>
<path id="Vector_5" d="M4.72672 0.781461L5.97241 0C5.6918 0.355265 5.40001 0.707587 5.16124 1.09161L4.72672 0.781461Z" fill="var(--fill-0, #374DAB)"/>
</g>
</svg>
