<svg preserveAspectRatio="none" width="100%" height="100%" overflow="visible" style="display: block;" viewBox="0 0 32 32" fill="none" xmlns="http://www.w3.org/2000/svg">
<g id="icon">
<rect width="32" height="32" rx="16" fill="var(--fill-0, white)"/>
<path id="Exclude" d="M15.7091 8.00495C20.1253 7.84404 23.8357 11.2946 23.9952 15.711C24.1546 20.1274 20.7026 23.8363 16.2862 23.9942C11.872 24.1518 8.16524 20.7023 8.00593 16.2882C7.84665 11.8741 11.295 8.16599 15.7091 8.00495ZM18.1231 14.3038C17.4718 14.3649 16.7881 14.6733 16.3673 15.1817C16.3247 15.2334 16.2839 15.2872 16.2452 15.3419C16.2588 15.0498 16.248 14.7096 16.2501 14.4132C15.6512 14.4126 15.0291 14.4035 14.4317 14.4132V20.7989C15.0678 20.8027 15.7235 20.8055 16.3594 20.7989L16.3604 18.4063L16.3594 17.7276C16.3587 17.2635 16.3578 16.9387 16.6436 16.5411C16.8349 16.3055 17.0088 16.1989 17.3048 16.128C18.0551 15.948 18.7835 16.3245 18.8458 17.1387C18.8589 17.3111 18.8538 17.4787 18.8536 17.6514L18.8516 18.4678C18.851 19.2386 18.8605 20.0295 18.8497 20.7989L20.7882 20.7999V17.8516L20.7891 17.0606C20.7892 16.8157 20.7962 16.5127 20.7491 16.2794C20.6698 15.8865 20.4041 15.2667 20.1124 14.9923C19.6193 14.5285 19.0355 14.2912 18.3614 14.295C18.2819 14.2951 18.2024 14.2977 18.1231 14.3038ZM11.3565 14.4141L11.3575 20.7989L13.335 20.7999V14.4132C12.6828 14.4128 12.0068 14.4037 11.3565 14.4141ZM12.2091 11.2061C11.585 11.2813 11.1413 11.85 11.2198 12.4737C11.2985 13.0972 11.8691 13.5379 12.4923 13.4561C13.1108 13.375 13.5475 12.8094 13.4698 12.1905C13.3919 11.5714 12.8285 11.1315 12.2091 11.2061Z" fill="var(--fill-0, #0067C7)"/>
</g>
</svg>
