<svg preserveAspectRatio="none" width="100%" height="100%" overflow="visible" style="display: block;" viewBox="0 0 32 32" fill="none" xmlns="http://www.w3.org/2000/svg">
<g id="icon">
<rect width="32" height="32" rx="16" fill="var(--fill-0, white)"/>
<path id="Vector" d="M20.1236 17.7865C19.8997 17.6748 18.7988 17.1363 18.5938 17.0613C18.3881 16.987 18.2389 16.9503 18.0889 17.1738C17.9404 17.3965 17.5109 17.8983 17.3805 18.0468C17.2502 18.196 17.119 18.214 16.8952 18.103C16.6714 17.9905 15.9495 17.7558 15.0942 16.9968C14.4288 16.4058 13.9789 15.676 13.8485 15.4525C13.7181 15.2298 13.8349 15.109 13.9465 14.998C14.0475 14.8983 14.171 14.7378 14.2826 14.608C14.3949 14.4775 14.4318 14.3845 14.5071 14.2353C14.5817 14.0868 14.5448 13.957 14.4883 13.8453C14.4318 13.7335 13.9842 12.6363 13.798 12.19C13.6157 11.7558 13.431 11.815 13.2939 11.8075C13.1635 11.8015 13.0143 11.8 12.8643 11.8C12.7151 11.8 12.4725 11.8555 12.2675 12.079C12.0625 12.3018 11.4838 12.841 11.4838 13.9383C11.4838 15.0348 12.2863 16.0945 12.3979 16.2438C12.5102 16.3923 13.9774 18.6438 16.2238 19.609C16.7581 19.8385 17.1748 19.9758 17.5004 20.0778C18.0369 20.248 18.5252 20.224 18.9103 20.1663C19.3406 20.1025 20.2351 19.627 20.422 19.1065C20.6089 18.586 20.6089 18.1398 20.5523 18.0468C20.4966 17.9538 20.3481 17.8983 20.1236 17.7865ZM16.0377 23.3388H16.0346C14.7006 23.3389 13.3912 22.9819 12.2434 22.3053L11.9714 22.1448L9.15222 22.8813L9.90429 20.1453L9.7272 19.8648C8.98149 18.683 8.58699 17.3153 8.5893 15.9198C8.59005 11.8323 11.9322 8.50678 16.0407 8.50678C18.0301 8.50678 19.9005 9.27928 21.3067 10.6803C22.0005 11.3677 22.5504 12.1853 22.9246 13.0857C23.2988 13.9861 23.4899 14.9514 23.4868 15.9258C23.4845 20.0133 20.1431 23.3388 16.0377 23.3388ZM22.3775 9.61603C21.5472 8.78422 20.5593 8.12468 19.471 7.67563C18.3827 7.22658 17.2158 6.99694 16.0377 7.00003C11.098 7.00003 7.07762 11.0013 7.07536 15.919C7.07536 17.491 7.48756 19.0255 8.27204 20.3778L7 25L11.7513 23.7595C13.0652 24.4719 14.5376 24.8453 16.0339 24.8455H16.0377C20.9766 24.8455 24.9977 20.8443 25 15.9258C25.0036 14.7537 24.7737 13.5926 24.3236 12.5095C23.8734 11.4265 23.212 10.443 22.3775 9.61603Z" fill="var(--fill-0, #1BCD5D)"/>
</g>
</svg>
