<svg preserveAspectRatio="none" width="100%" height="100%" overflow="visible" style="display: block;" viewBox="0 0 16 13.1761" fill="none" xmlns="http://www.w3.org/2000/svg">
<g id="Group 1">
<path id="Exclude" d="M2.22381 0.0100664C2.42455 -0.00398851 2.71906 0.0084131 2.92665 0.00884178C3.38218 0.00669957 3.83772 0.00861158 4.29321 0.0145157C6.05384 0.0307756 8.10714 -0.132122 9.51159 1.15404C9.6303 1.26279 9.73407 1.3951 9.83313 1.52203C9.83198 1.52533 9.83097 1.52864 9.82982 1.53195L9.82468 1.5486C9.7648 1.73982 9.92136 1.90965 10.006 2.10799C10.427 3.09398 10.3362 4.3992 9.93191 5.37936C9.66941 6.01548 9.07962 6.93337 8.47886 7.30058C8.33235 7.38292 8.16221 7.45691 7.99898 7.49892C7.739 7.5657 7.45326 7.65973 7.55286 7.99913C7.64557 8.31502 7.75341 8.6303 7.85289 8.94598L8.91595 12.285C8.9798 12.4875 9.03468 12.6904 9.11409 12.8874C9.15986 13.001 9.34669 13.0602 9.3255 13.1642C9.29174 13.1816 8.49838 13.1747 8.41407 13.1747L6.5976 13.1746C6.28447 13.1745 5.9695 13.1759 5.65646 13.1731C5.6145 13.1732 5.52515 13.1637 5.49367 13.1357C5.41826 13.069 5.40683 12.923 5.38795 12.8263C5.36628 12.7154 5.34705 12.6008 5.32676 12.4887C5.1573 11.496 4.93954 10.4476 4.74565 9.4548L4.58686 8.63073C4.5476 8.42466 4.5039 8.10395 4.41354 7.92369C4.39637 8.10416 4.3587 8.30646 4.32933 8.48745L4.18475 9.38059L3.80056 11.7801C3.72832 12.2295 3.64283 12.7044 3.58311 13.1538L0 13.1703C0.0187057 12.9702 0.0596883 12.7294 0.0906605 12.529L0.269777 11.4088L0.801576 8.10803L1.77374 2.02999C1.81399 1.77877 2.0412 0.204208 2.09956 0.0981552C2.12913 0.044446 2.16687 0.0268166 2.22381 0.0100664ZM5.33946 2.91708C5.22579 2.94254 5.21173 3.01179 5.1972 3.11991C5.05998 4.1407 4.85415 5.15845 4.71443 6.1782C5.10133 6.26582 5.44005 6.19818 5.75688 5.9508C6.26499 5.57756 6.51332 5.07973 6.60654 4.46361C6.66398 4.08399 6.62289 3.70945 6.38852 3.39434C6.12779 3.04381 5.75743 2.93214 5.33946 2.91708Z" fill="var(--fill-0, #91BA24)"/>
<path id="Exclude_2" d="M13.9271 0.00722686C14.1556 0.00520901 14.8727 -0.0191654 15.045 0.0347801C15.0798 0.0732551 15.096 0.0984586 15.1014 0.152177C15.1223 0.357056 15.1346 0.564708 15.1464 0.769942L15.1994 1.55686L15.443 5.00833L15.7344 9.30321C15.8342 10.5918 15.9227 11.8812 16 13.1712C15.8744 13.1628 15.6955 13.1678 15.5672 13.1676L14.7908 13.1672C13.9051 13.1643 13.0195 13.1666 12.134 13.1741L12.1339 12.3965C12.1326 12.1253 12.1331 11.854 12.1356 11.5829C11.6619 11.5666 11.1213 11.5795 10.6427 11.5803C10.5048 11.5814 10.3667 11.5803 10.2289 11.5772C10.1142 11.5743 9.92312 11.5476 9.82541 11.6061C9.78936 11.6277 9.75562 11.6761 9.7412 11.7154C9.64862 11.967 9.57815 12.2279 9.49351 12.4825C9.46561 12.5665 9.43669 12.6542 9.41934 12.7401C9.27116 12.3536 9.11609 11.8118 8.98714 11.4076L8.27843 9.17887C8.14488 8.75816 8.00807 8.30328 7.86407 7.88926C8.12834 7.8228 8.4615 7.70347 8.69255 7.5649C8.93268 7.42101 9.14711 7.19299 9.32925 6.98065C9.86648 6.3545 10.2779 5.60603 10.4718 4.80076C10.7096 3.8138 10.6891 2.54286 10.146 1.65263C10.1895 1.51268 10.2997 1.26506 10.3574 1.12462L10.7149 0.247695C10.7719 0.11107 10.7784 0.062815 10.9056 0.01037C11.1036 -0.00194949 11.357 0.00428556 11.558 0.0048185C11.9469 0.00851765 12.336 0.0100476 12.7249 0.00943112L13.9271 0.00722686ZM12.3359 3.48261C12.2768 3.60276 12.1399 4.07786 12.0926 4.23096L10.8349 8.29701C10.8108 8.37392 10.7533 8.54037 10.7378 8.61352L10.7494 8.62985L12.2181 8.62993C12.2251 8.20954 12.2365 7.78915 12.2523 7.36897L12.3195 5.02033C12.334 4.54371 12.3553 4.06704 12.361 3.59009C12.3615 3.55088 12.3656 3.51065 12.3359 3.48261Z" fill="var(--fill-0, #007635)"/>
</g>
</svg>
