<svg preserveAspectRatio="none" width="100%" height="100%" overflow="visible" style="display: block;" viewBox="0 0 18.8533 40" fill="none" xmlns="http://www.w3.org/2000/svg">
<g id="Group 1">
<path id="Vector" d="M5.01034 13.1665C5.74202 12.676 6.52579 12.127 7.27689 11.678C6.82215 12.3217 6.13031 13.369 5.64601 13.946C4.82175 16.0789 5.18016 17.7824 6.63486 19.5428C11.616 25.5701 17.7802 28.1939 13.1811 37.0408C12.6873 38.1044 11.8245 39.1253 11.0466 40C11.9207 37.4906 12.1945 37.2749 12.3423 34.5414C11.8761 32.7445 11.3688 31.5927 10.1677 30.1296C4.88707 23.6979 -6.59574 21.0322 5.01034 13.1665Z" fill="var(--fill-0, #F58220)"/>
<path id="Vector_2" d="M16.2329 23.6359C16.2536 23.5058 16.2735 23.3754 16.2923 23.2448C17.3019 16.2065 8.54302 13.0534 4.9795 8.52638C2.13917 4.91812 6.34505 1.88969 8.91139 0L9.73058 0.584725C6.09016 8.30676 23.0242 11.2211 17.8677 22.4859C17.6685 22.9218 17.4523 23.35 17.2198 23.7693C16.8016 23.777 16.6458 23.7263 16.2329 23.6359Z" fill="var(--fill-0, #004AAF)"/>
</g>
</svg>
