<svg preserveAspectRatio="none" width="100%" height="100%" overflow="visible" style="display: block;" viewBox="0 0 18 18" fill="none" xmlns="http://www.w3.org/2000/svg">
<path id="Vector" d="M9 1C11.185 1 13.2475 1.69621 14.7393 2.88965C16.2253 4.07848 17 5.63701 17 7.2002C17 9.03131 15.6947 11.0758 13.8984 12.9639C12.1702 14.7805 10.1817 16.2509 9.14746 16.9678C9.11671 16.9829 9.06593 17 9 17C8.93351 17 8.88222 16.9831 8.85156 16.9678C7.81717 16.2508 5.82945 14.7801 4.10156 12.9639C2.30531 11.0758 1.00005 9.03131 1 7.2002C1 5.63701 1.77473 4.07848 3.26074 2.88965C4.75255 1.69621 6.81497 1 9 1ZM11.375 7.2002C11.3749 7.94239 10.5314 8.90039 9 8.90039C7.46864 8.90039 6.62508 7.94239 6.625 7.2002C6.625 6.45798 7.46857 5.5 9 5.5C10.5314 5.5 11.375 6.45798 11.375 7.2002ZM13.375 7.2002C13.375 4.96003 11.1965 3.5 9 3.5C6.80351 3.5 4.625 4.96003 4.625 7.2002C4.62507 9.4403 6.80354 10.9004 9 10.9004C11.1965 10.9004 13.3749 9.4403 13.375 7.2002Z" stroke="var(--stroke-0, #F97316)" stroke-width="2"/>
</svg>
