<svg preserveAspectRatio="none" width="100%" height="100%" overflow="visible" style="display: block;" viewBox="0 0 32 32" fill="none" xmlns="http://www.w3.org/2000/svg">
<g id="Frame">
<rect width="32" height="32" rx="16" fill="var(--fill-0, #FDEEE5)"/>
<path id="Vector" d="M16.34 23.9577C20.5 22.7979 24 20.7982 24 16.7989V11.1998C24 10.9877 23.8946 10.7842 23.7071 10.6342C23.5196 10.4842 23.2652 10.4 23 10.4C21 10.4 18.51 9.44812 16.76 8.22432C16.5481 8.07955 16.2786 8 16 8C15.7214 8 15.4519 8.07955 15.24 8.22432C13.5 9.44012 11 10.4 9 10.4C8.73478 10.4 8.48043 10.4842 8.29289 10.6342C8.10536 10.7842 8 10.9877 8 11.1998V16.7989C8 20.7982 11.5 22.7979 15.67 23.9497C15.8855 24.0139 16.1222 24.0167 16.34 23.9577Z" fill="var(--fill-0, #F97316)"/>
</g>
</svg>
