<svg preserveAspectRatio="none" width="100%" height="100%" overflow="visible" style="display: block;" viewBox="0 0 18 18" fill="none" xmlns="http://www.w3.org/2000/svg">
<path id="Vector" d="M1.7998 1H4.5C4.71213 1 4.91541 1.08441 5.06543 1.23438C5.21541 1.38436 5.29975 1.5877 5.2998 1.7998V4.5C5.2998 4.62405 5.27124 4.74644 5.21582 4.85742C5.16037 4.96833 5.07961 5.06518 4.98047 5.13965L4.55859 5.45605L4.55176 5.46094C4.24644 5.69408 4.01993 6.01355 3.90039 6.37598L3.85645 6.5332C3.75532 6.96022 3.8048 7.40925 3.99707 7.80371L3.99902 7.80762C5.32664 10.504 7.51 12.6846 10.208 14.0088L10.2197 14.0146L10.2314 14.0195C10.6238 14.1997 11.0664 14.2414 11.4854 14.1367C11.9041 14.032 12.2747 13.7877 12.5361 13.4443L12.5352 13.4434L12.8545 13.0264L12.8604 13.0195C12.9348 12.9204 13.0317 12.8396 13.1426 12.7842C13.2536 12.7288 13.3759 12.7002 13.5 12.7002H16.2002C16.4123 12.7002 16.6156 12.7846 16.7656 12.9346C16.9156 13.0846 17 13.2879 17 13.5V16.2002C16.9999 16.4123 16.9156 16.6156 16.7656 16.7656C16.6156 16.9156 16.4123 16.9999 16.2002 17C12.1689 17 8.3027 15.3984 5.45215 12.5479C2.6016 9.6973 1 5.8311 1 1.7998C1.00005 1.5877 1.08439 1.38436 1.23438 1.23438C1.3656 1.10315 1.53765 1.02213 1.7207 1.00391L1.7998 1Z" stroke="var(--stroke-0, #F97316)" stroke-width="2"/>
</svg>
