<svg preserveAspectRatio="none" width="100%" height="100%" overflow="visible" style="display: block;" viewBox="0 0 100.03 38.6497" fill="none" xmlns="http://www.w3.org/2000/svg">
<g id="Logo">
<path id="Vector" d="M49.8993 10.6857C50.9487 10.7708 53.0536 10.7154 54.1558 10.7005C54.1788 11.3282 54.158 11.8958 54.1375 12.5218C55.499 10.8192 57.3983 10.442 59.4574 10.8517C63.7795 11.7118 65.3957 16.8448 63.6723 20.548C62.9894 22.0469 61.7306 23.2069 60.181 23.7654C58.183 24.468 56.5744 24.1343 54.757 23.2529C55.2267 22.2416 55.8972 21.4712 56.3611 20.396C57.9169 20.7959 58.5172 20.5585 59.4956 19.3129C59.8337 18.7493 60.0314 18.1129 60.0721 17.4571C60.1215 16.5671 59.8524 15.7115 59.2451 15.0501C58.7036 14.4538 57.9442 14.1014 57.1393 14.0728C53.4242 13.9581 54.1688 18.6495 54.178 21.1021C54.1934 23.9523 54.1856 26.8025 54.1547 29.6526L49.9072 29.6369L49.8993 10.6857Z" fill="var(--fill-0, white)"/>
<path id="Vector_2" d="M93.8187 10.6728C94.8135 10.7637 96.8472 10.7252 97.8786 10.6893C97.9407 13.6254 97.763 16.7164 97.9877 19.6495C98.0601 20.591 99.4093 20.2346 100.023 20.089C100.032 21.3219 100.032 22.5549 100.024 23.7879C96.4692 24.8274 94.1224 23.2477 93.8497 19.4751C93.7266 17.7778 94.1215 15.6609 92.4394 14.563C91.7314 14.1006 90.7413 14.0704 89.9421 14.2485C89.3451 14.493 88.9812 14.698 88.544 15.1883C87.4251 16.4433 87.3527 18.8098 88.701 19.9324C89.5096 20.6054 90.3408 20.4994 91.3384 20.3805C92.1611 21.1145 92.9386 21.9015 93.7764 22.6115C91.2641 24.4581 88.3287 24.7765 85.7929 22.6861C83.0333 20.4114 82.8593 15.3858 85.1968 12.7649C86.4172 11.3958 87.914 10.8161 89.7165 10.7085C91.6872 10.7196 92.3942 11.064 93.8328 12.3789C93.8008 11.8481 93.8178 11.2121 93.8187 10.6728Z" fill="var(--fill-0, white)"/>
<path id="Vector_3" d="M30.6512 10.7078C35.6811 10.5928 35.4571 14.8612 35.4519 18.4883L35.441 24.1365C34.4101 24.1029 33.2574 24.1273 32.2173 24.1265L31.3902 24.128C31.3961 22.1479 31.5263 16.8164 31.2096 15.2049L31.1341 15.1358C30.2714 14.3499 29.9566 14.3532 28.8096 14.4055C28.4446 13.6227 27.9989 12.8801 27.4799 12.1897C28.7476 11.3903 29.0262 10.8365 30.6512 10.7078Z" fill="var(--fill-0, white)"/>
<path id="Vector_4" d="M20.0885 8.02568C20.2744 8.21674 20.1976 12.472 20.1969 13.031L20.1993 24.1258L16.0901 24.1238C15.9026 23.9261 15.9852 13.1453 15.9859 11.9521C17.3768 10.7276 18.7068 9.28888 20.0885 8.02568Z" fill="var(--fill-0, white)"/>
<path id="Vector_5" d="M73.2454 10.6871C74.621 10.7046 75.9966 10.7054 77.3721 10.6898L77.3787 24.121L73.2436 24.1206C73.3489 19.82 73.2558 15.0011 73.2454 10.6871Z" fill="var(--fill-0, white)"/>
<path id="Vector_6" d="M70.3987 8.77566C70.5868 9.03329 70.4969 12.5919 70.4957 13.1157L70.4982 24.1255L66.486 24.1204C66.3146 23.887 66.3816 13.87 66.369 12.7943C67.7316 11.5001 69.0114 10.0669 70.3987 8.77566Z" fill="var(--fill-0, white)"/>
<path id="Vector_7" d="M22.9644 10.6671C24.1403 10.7594 25.8695 10.7133 27.0649 10.6946C27.0647 12.1413 27.1584 23.829 26.9503 24.1241L22.9727 24.1299C23.0315 22.5005 22.9754 20.4838 22.9759 18.8193C22.9859 16.1019 22.9821 13.3844 22.9644 10.6671Z" fill="var(--fill-0, white)"/>
<path id="Vector_8" d="M43.229 15.7185C44.6559 16.0296 46.0091 16.4373 47.0103 17.5833C48.3552 19.1226 48.1699 21.6434 46.5697 22.9344C44.8233 24.3436 42.6366 24.1677 40.5543 23.9968C39.6081 23.8287 38.6814 23.5654 37.7314 23.3776C37.7013 22.1956 37.7091 20.9551 37.6993 19.7686C38.6912 20.2523 44.2048 22.4738 43.9243 19.9271C43.801 19.6335 43.5185 19.4826 43.2534 19.3001C43.2559 18.1062 43.2478 16.9123 43.229 15.7185Z" fill="var(--fill-0, white)"/>
<path id="Vector_9" d="M41.2989 10.7854C43.5912 10.617 44.9993 10.7351 47.1941 11.309C47.1926 12.4818 47.1812 13.6546 47.16 14.8271C46.0129 14.3557 42.6729 13.1798 41.6344 14.134C41.3973 14.6925 41.943 15.7095 42.1421 16.573C42.3763 17.4451 42.5849 18.324 42.7676 19.2082C40.1685 18.4613 37.2252 17.6192 37.576 14.1443C37.7822 12.1015 39.4226 11.1446 41.2989 10.7854Z" fill="var(--fill-0, white)"/>
<path id="Vector_10" d="M2.88521 8.42995C3.30653 8.1475 3.75784 7.83139 4.19035 7.57283C3.92849 7.94347 3.53011 8.54653 3.25124 8.87881C2.77661 10.1069 2.98299 11.0879 3.82065 12.1016C6.68892 15.5722 10.2384 17.0831 7.59014 22.1774C7.30581 22.7898 6.80899 23.3777 6.36106 23.8814C6.86437 22.4364 7.02205 22.3122 7.10714 20.7382C6.8387 19.7034 6.54657 19.0402 5.85494 18.1977C2.81422 14.4942 -3.79788 12.9592 2.88521 8.42995Z" fill="var(--fill-0, #F7872D)"/>
<path id="Vector_11" d="M9.34744 14.4585C9.35938 14.3835 9.37085 14.3085 9.38167 14.2333C9.96301 10.1804 4.91941 8.36483 2.86745 5.75803C1.23191 3.68031 3.65377 1.93645 5.13153 0.848322L5.60325 1.18502C3.507 5.63157 13.2581 7.3097 10.2888 13.7963C10.1741 14.0473 10.0496 14.2938 9.91572 14.5353C9.67493 14.5397 9.58523 14.5106 9.34744 14.4585Z" fill="var(--fill-0, white)"/>
<path id="Vector_12" d="M7.1071 20.7381L7.12082 20.8123C7.25781 21.5837 6.98101 21.7155 7.59009 22.1773C7.30577 22.7898 6.80895 23.3776 6.36102 23.8813C6.86433 22.4364 7.022 22.3122 7.1071 20.7381Z" fill="var(--fill-0, #FE973D)"/>
<path id="Exclude" d="M70.2709 29.6871C71.7909 29.5189 72.7989 29.5946 74.1772 30.2524C73.788 30.8124 73.4503 31.7521 73.2208 32.3999C72.2035 31.9533 71.3309 31.6373 70.4126 32.4751C69.6528 33.1688 69.3349 35.3203 69.9983 36.0811C70.4825 36.6363 72.0071 35.8094 72.6699 35.7498C72.809 35.9612 72.7488 36.2052 72.7441 36.5049L72.7291 37.9377C65.6637 41.3404 64.6731 31.5423 70.2709 29.6871ZM97.0502 26.4823C98.0187 26.4981 98.9872 26.502 99.9547 26.4944C99.6275 27.8214 99.3548 29.46 99.0717 30.825L97.4847 38.4214C97.0099 38.4317 95.6068 38.5191 95.2561 38.3457C95.2476 38.1176 95.2423 37.889 95.2366 37.6607C94.8446 37.4835 94.4044 38.2512 94.0415 38.4111C93.8271 38.5052 93.5092 38.5588 93.2779 38.601C88.5984 38.5892 90.7384 29.4722 94.4448 29.6063C95.3408 29.6388 95.796 30.1622 96.3517 30.7805C96.363 29.6575 96.7889 27.5878 97.0502 26.4823ZM86.2486 29.6115C86.6181 29.6106 87.1899 29.6384 87.5528 29.7139C88.2993 29.8691 88.9443 30.2997 89.3411 30.9553C89.6137 31.4058 89.6477 32.2135 89.5019 32.7183C88.6492 35.6775 85.2457 34.8124 84.4228 35.3025L84.3824 35.489C84.8958 37.2524 87.0828 36.2665 88.2693 35.8148C88.1979 36.2845 88.2147 36.9996 88.211 37.4922C88.1824 38.5758 83.8095 39.048 82.6456 37.8561C80.735 35.9007 81.3849 33.0936 82.9034 31.1236C83.728 30.0536 85.0132 29.6856 86.2486 29.6115ZM79.9435 29.6831C80.4446 29.6194 80.9609 29.6384 81.4677 29.6431C81.3239 30.1333 81.103 31.0312 81.009 31.6646C80.7683 33.2698 80.1786 31.7676 78.961 32.6533C77.7519 33.5322 77.2848 37.357 77.1353 38.424C76.2054 38.4398 75.2284 38.4214 74.2948 38.4188C74.2703 38.3547 74.245 38.2905 74.2206 38.2264C74.701 35.9721 75.5011 31.799 76.0191 29.7261L78.2915 29.7536L78.1853 31.2356C78.835 30.4281 78.9996 30.1615 79.9435 29.6831ZM94.9667 31.8901C93.8149 32.7427 92.7148 36.165 94.4363 36.2702C95.6708 35.4817 96.6571 32.1356 94.9667 31.8901ZM85.9452 31.5265C85.3839 31.8438 84.5696 32.608 84.8658 33.3052C85.1309 33.4471 85.3443 33.374 85.6536 33.3265C86.323 33.1305 86.9624 32.6737 86.718 31.8875C86.5064 31.5924 86.3015 31.5379 85.9452 31.5265Z" fill="var(--fill-0, #F7872D)"/>
<path id="Vector_13" d="M15.9859 3.72099C17.3923 3.735 18.7988 3.73801 20.2052 3.72983C20.1923 5.04136 20.1594 6.40018 20.2081 7.70739C18.8455 7.75675 17.3622 7.73146 15.9938 7.72836L15.9859 3.72099Z" fill="var(--fill-0, white)"/>
<path id="Vector_14" d="M66.4143 4.50605C67.1399 4.61371 69.6849 4.55099 70.5089 4.54639L70.4911 8.50731C69.1245 8.58855 67.7542 8.58807 66.3877 8.5058C66.3815 7.5115 66.319 5.42823 66.4143 4.50605Z" fill="var(--fill-0, white)"/>
<path id="Vector_15" d="M81.2327 10.7053C81.6172 10.6746 82.2227 10.6813 82.6252 10.6723C82.6148 11.9893 82.6167 13.3064 82.6299 14.6233C81.6351 14.375 80.7325 14.1485 79.7396 14.4155C79.2666 14.1489 78.3697 13.1959 77.8685 12.7589C78.9592 11.6812 79.6578 10.9285 81.2327 10.7053Z" fill="var(--fill-0, white)"/>
<path id="Vector_16" d="M9.34757 14.4586C9.58535 14.5107 9.67505 14.5398 9.91584 14.5354C9.6491 15.0013 9.04791 15.8339 8.72776 16.308C8.9663 15.6848 9.1488 15.0946 9.34757 14.4586Z" fill="var(--fill-0, #374DAB)"/>
<path id="Vector_17" d="M5.13156 0.848371L6.4839 0C6.17926 0.385684 5.86249 0.768171 5.60327 1.18507L5.13156 0.848371Z" fill="var(--fill-0, #374DAB)"/>
</g>
</svg>
