<svg preserveAspectRatio="none" width="100%" height="100%" overflow="visible" style="display: block;" viewBox="0 0 32 32" fill="none" xmlns="http://www.w3.org/2000/svg">
<g id="material-icon">
<path id="Vector" d="M24 10.6667H22.6667V8C22.6667 4.32 19.68 1.33333 16 1.33333C12.32 1.33333 9.33333 4.32 9.33333 8V10.6667H8C6.53333 10.6667 5.33333 11.8667 5.33333 13.3333V26.6667C5.33333 28.1333 6.53333 29.3333 8 29.3333H24C25.4667 29.3333 26.6667 28.1333 26.6667 26.6667V13.3333C26.6667 11.8667 25.4667 10.6667 24 10.6667ZM16 22.6667C14.5333 22.6667 13.3333 21.4667 13.3333 20C13.3333 18.5333 14.5333 17.3333 16 17.3333C17.4667 17.3333 18.6667 18.5333 18.6667 20C18.6667 21.4667 17.4667 22.6667 16 22.6667ZM20.1333 10.6667H11.8667V8C11.8667 5.72 13.72 3.86667 16 3.86667C18.28 3.86667 20.1333 5.72 20.1333 8V10.6667Z" fill="var(--fill-0, #F97316)"/>
</g>
</svg>
